<svg width="61" height="33" viewBox="0 0 61 33" fill="none" xmlns="http://www.w3.org/2000/svg">
<path d="M0.921645 16.587C0.976709 17.3153 0.607041 29.1102 0.0869162 30.8065C-0.433209 32.5028 1.49105 33.1858 2.8605 32.9562C3.83868 32.7922 3.80349 31.3901 3.77072 29.9877C3.74709 28.9765 3.73441 24.9654 3.69925 22.3565C3.67112 20.2694 4.60113 21.1996 5.32873 22.4855C5.70986 23.1591 6.61038 24.6038 7.28985 25.7772C8.13918 27.2439 8.59605 27.5695 9.76987 27.3727C10.7089 27.2153 11.2353 26.5236 11.6582 25.447C11.7876 25.1176 12.2782 23.5154 12.7957 21.4347C13.9698 16.714 15.5959 9.47765 15.6857 8.68082C15.815 7.53277 15.066 7.37677 14.6747 7.44237C14.6747 7.44237 13.8922 7.57358 13.3041 7.67219C12.7159 7.7708 12.7523 9.17265 12.6867 9.9882C12.6344 10.6375 11.1837 16.0648 10.2829 19.6435C10.0522 20.5599 9.81847 21.643 9.69955 22.155C9.29813 23.8832 8.9194 23.4926 8.13446 22.4174C7.34952 21.3422 5.55128 16.6153 4.9644 15.5069C4.37753 14.3985 3.10409 14.0086 1.93027 14.2054C0.991217 14.3628 0.866581 15.8587 0.921645 16.587Z" fill="white"/>
<path d="M31.9431 7.96627C30.8898 8.14289 29.6529 8.26278 28.0946 9.25835C26.5364 10.2539 28.1438 11.6204 29.4181 11.4067C30.6924 11.193 31.0073 10.8166 32.3168 10.597C33.6263 10.3774 36.0041 9.90013 36.0041 9.90013C36.0041 9.90013 36.8037 18.0035 37.4814 19.9104C38.1592 21.8172 40.4855 22.2323 40.2215 20.6578C39.9575 19.0832 39.2957 11.783 39.1629 9.3916L41.482 8.98166C42.4601 8.81765 44.4513 8.69708 45.0382 8.59867C45.6251 8.50026 46.7641 8.09599 46.5673 6.92217C46.3705 5.74836 45.1881 5.3432 44.5114 5.45667C43.8346 5.57014 40.8825 6.4674 40.273 6.5696C39.6635 6.6718 39.2948 6.73361 39.1964 6.1467C39.098 5.5598 39.3934 4.4815 39.4225 3.8963C39.4516 3.31109 39.4305 2.08472 39.2993 1.30218C39.1681 0.519631 38.4313 -0.16163 37.2575 0.0351854C36.0837 0.232 35.589 1.25605 35.6979 1.90602C35.8069 2.55599 36.0611 2.69321 36.0943 3.57143C36.1274 4.44965 36.07 5.43412 36.1517 6.44487C36.2028 7.07758 36.0992 7.39761 35.1597 7.55513C34.2202 7.71266 32.9965 7.78966 31.9431 7.96627Z" fill="white"/>
<path fill-rule="evenodd" clip-rule="evenodd" d="M19.2373 15.2808C19.3614 14.4724 19.6558 13.5448 20.1771 13.0551C20.8805 12.3943 22.1042 11.598 23.2655 11.4033C24.5304 11.1912 26.2158 11.4523 27.1357 12.1917C28.0555 12.931 28.9205 14.1049 29.1174 15.2787C29.3696 16.7833 28.8707 18.9405 27.8937 20.3112C27.7653 20.4913 27.638 20.6781 27.5089 20.8677C26.6557 22.1207 25.6838 23.566 23.8146 23.8794C21.6626 24.2403 20.7784 23.6779 19.6362 22.8638C18.494 22.0496 18.2641 21.0892 18.1329 20.3067C18.0259 19.6684 18.2978 18.3846 18.5163 17.7022C18.8185 16.7581 19.0845 16.2765 19.2373 15.2808ZM21.4546 18.7033C21.6364 17.8682 22.2931 16.9735 22.1541 16.145C22.0723 15.657 22.0856 15.1445 22.2616 14.6139C22.5749 14.2355 22.7249 14.138 23.2241 14.0543C23.8111 13.9559 24.2212 14.0026 24.6452 14.1327C25.0693 14.2627 25.8907 14.5079 26.0875 15.6817C26.2844 16.8555 25.8237 17.8986 25.3994 18.6306C24.9752 19.3626 24.1629 20.2658 23.5569 20.8372C23.0077 21.3549 22.5036 21.3787 21.936 20.9742C21.4791 20.6485 21.2273 19.7471 21.4546 18.7033Z" fill="white"/>
<path fill-rule="evenodd" clip-rule="evenodd" d="M52.6436 7.15928C51.9398 7.76002 50.4365 9.22736 49.8639 9.78875C49.6138 10.0339 49.1964 10.4186 49.1964 10.4186C48.7433 10.6572 47.988 10.7362 47.3709 10.8396C46.4921 10.987 46.4727 11.4158 46.2009 12.0632C45.3584 14.0697 44.9769 14.5028 45.2122 15.9063C45.3861 16.9434 45.827 17.1433 46.2015 17.7841C46.5761 18.4249 47.0825 19.9634 47.7466 20.7904C48.4107 21.6174 50.0941 22.6229 52.3545 22.2439C53.4067 22.0674 54.799 21.5539 55.7781 20.8957C57.0582 20.0353 57.952 19.1552 58.9325 17.5964C59.9131 16.0376 61.4382 13.7165 60.7943 9.87626C60.4915 8.07016 60.1844 7.34633 59.5088 6.34338C58.8333 5.34043 57.6991 4.82994 56.4155 5.04517C55.0461 5.27479 53.5234 6.40836 52.6436 7.15928ZM53.7753 10.1914C55.1922 9.17117 55.9175 8.58393 56.579 8.47301C56.8962 8.41982 57.096 8.65571 57.3126 8.96991C57.5477 9.31102 57.7865 9.7539 57.7889 10.2702C57.8071 14.1386 55.8599 18.0357 52.0895 19.2713C51.3069 19.4025 50.4253 19.3638 49.9323 18.7488C49.7054 18.4658 49.5322 18.0588 49.4669 17.6173C49.3904 17.0994 49.4416 16.5374 49.4186 16.1241C49.3761 15.3584 49.2726 14.6517 49.4387 14.3259C49.8225 13.5737 50.0678 13.273 50.7472 12.6577C51.4265 12.0424 52.5493 11.0741 53.7753 10.1914Z" fill="white"/>
</svg>
